Coordinates
version=1
nRows=13
nColumns=36
inDegrees=yes

Units are S.I. units (second, meters, Newtons, ...)
If the header above contains a line with 'inDegrees', this indicates whether rotational values are in degrees (yes) or radians (no).

endheader
time	pelvis_tilt	pelvis_list	pelvis_rotation	pelvis_tx	pelvis_ty	pelvis_tz	hip_flexion_r	hip_adduction_r	hip_rotation_r	knee_angle_r	knee_angle_r_beta	ankle_angle_r	subtalar_angle_r	mtp_angle_r	hip_flexion_l	hip_adduction_l	hip_rotation_l	knee_angle_l	knee_angle_l_beta	ankle_angle_l	subtalar_angle_l	mtp_angle_l	lumbar_extension	lumbar_bending	lumbar_rotation	arm_flex_r	arm_add_r	arm_rot_r	elbow_flex_r	pro_sup_r	arm_flex_l	arm_add_l	arm_rot_l	elbow_flex_l	pro_sup_l
      6.55000000	     -5.76130490	      0.31974526	      1.67292388	      0.35101104	      0.92782330	     -0.01491694	      0.46746924	     -2.46144896	     -2.43938993	      0.47898231	      0.00835982	      2.34034413	     -8.33351617	     -7.49999987	      1.65402935	     -3.40738333	     -1.22938898	      1.75122443	      0.03056463	     -0.32667138	     -7.86973680	     -7.49999987	      6.07646575	     -1.12945191	      6.59033296	    180.03521260	    -13.40880404	     86.81325981	     16.96525060	     60.28360503	    160.13560609	    -15.49683384	     66.58138601	     32.30718310	     69.49780481
      6.56666670	     -5.75284305	      0.32307769	      1.64117640	      0.35112942	      0.92821573	     -0.01501384	      0.43718688	     -2.49601291	     -2.44869651	      0.48390923	      0.00844581	      2.35519912	     -8.30720222	     -7.49999987	      1.60026241	     -3.37425795	     -1.36155051	      1.75827476	      0.03068768	     -0.10663697	     -7.70599568	     -7.49999987	      6.20186453	     -1.06410305	      6.65469224	    179.79330012	    -13.29523127	     86.90126400	     16.89204783	     60.31823068	    160.03651472	    -15.34634046	     66.78012573	     31.80922419	     69.55361518
      6.58333330	     -5.74446606	      0.37995489	      1.60900594	      0.35097847	      0.92787030	     -0.01468164	      0.42197691	     -2.57510824	     -2.40461654	      0.48394596	      0.00844645	      2.39712832	     -8.35611637	     -7.49999987	      1.55585393	     -3.30173933	     -1.48414474	      1.74557158	      0.03046597	      0.02691704	     -7.56164931	     -7.49999987	      6.25805212	     -1.08910138	      6.73155862	    179.64550820	    -13.14914944	     86.83943052	     16.85022631	     60.31296695	    159.96151536	    -15.31382464	     66.94117053	     31.58562314	     69.38098072
      6.60000000	     -5.77313750	      0.35519879	      1.58778536	      0.34715949	      0.92529674	     -0.01035636	      0.53228962	     -2.48815225	     -2.36358838	      0.48043444	      0.00838516	      2.52481460	     -8.39361040	     -7.49999987	      1.61412606	     -3.36838679	     -1.46121624	      1.73271509	      0.03024158	      0.10972069	     -7.62408307	     -7.49999987	      6.24532174	     -1.15747211	      6.73248051	    179.63231442	    -12.89826565	     86.85920197	     16.89963887	     60.31615704	    160.06269148	    -15.14177485	     66.95908340	     31.60841163	     69.41010940
      6.61666670	     -5.81499398	      0.31406875	      1.56075660	      0.34712209	      0.92517335	     -0.01017856	      0.65326547	     -2.37351337	     -2.22623950	      0.50056159	      0.00873645	      2.64974657	     -8.51090493	     -7.49999987	      1.73121169	     -3.47926909	     -1.37921169	      1.79119209	      0.03126220	      0.16942275	     -7.79893337	     -7.49999987	      6.10555637	     -1.19436446	      6.74688418	    179.83762103	    -12.63079727	     86.33165038	     16.75246266	     60.24976063	    160.49666851	    -14.91448982	     67.21702056	     31.05303015	     69.46130577
      6.63333330	     -5.80261249	      0.32539079	      1.54190896	      0.34728019	      0.92588881	     -0.01045035	      0.70664266	     -2.32792774	     -2.22877496	      0.52531225	      0.00916843	      2.66248536	     -8.51679407	     -7.49999987	      1.75767925	     -3.52756988	     -1.37776998	      1.78589130	      0.03116968	      0.17812945	     -7.80236871	     -7.49999987	      6.06452284	     -1.25887751	      6.75752200	    179.81621928	    -12.59180931	     86.33553836	     16.76340180	     60.25088553	    160.49977640	    -14.90587369	     67.22107520	     31.05774417	     69.46564219
      6.65000000	     -5.78154373	      0.34179893	      1.53047181	      0.35113956	      0.92857370	     -0.01494351	      0.66239300	     -2.37970324	     -2.22860844	      0.56522959	      0.00986512	      2.66514521	     -8.52040883	     -7.49999987	      1.72916511	     -3.51349389	     -1.38801048	      1.80550625	      0.03151203	      0.17859496	     -7.80409714	     -7.49999987	      6.16609735	     -1.16480492	      6.75755123	    179.86270060	    -12.61662598	     86.32853980	     16.74835810	     60.24990254	    160.53821266	    -14.88088017	     67.22117115	     31.07476810	     69.47106106
      6.66666670	     -5.96071600	      0.32458286	      1.45854523	      0.35139911	      0.92865702	     -0.01505167	      0.81011134	     -2.41089233	     -2.27829942	      0.52934187	      0.00923876	      2.62325295	     -8.35639078	     -7.49999987	      1.87649642	     -3.51010496	     -1.70152844	      1.79628704	      0.03135112	      0.35031159	     -7.42084756	     -7.49999987	      6.44561658	     -1.19920851	      7.17280422	    180.25936703	    -13.25752246	     85.88632264	     17.54622042	     60.23067497	    160.40619626	    -14.81151118	     67.31600607	     31.88898800	     69.33397752
      6.68333330	     -5.77423167	      0.31656241	      1.49070787	      0.35106081	      0.92839186	     -0.01485484	      0.56528978	     -2.44328745	     -2.33562011	      0.52138977	      0.00909997	      2.63409745	     -8.30765031	     -7.49999987	      1.66947225	     -3.48577686	     -1.60854233	      1.82017774	      0.03176809	      0.30401025	     -7.67160762	     -7.49999987	      6.06904658	     -1.17800405	      7.17043791	    180.73095694	    -13.30832550	     85.13411334	     17.50284271	     60.37673954	    160.85336313	    -14.67718959	     67.05356448	     32.00860416	     69.29122787
      6.70000000	     -5.76195713	      0.32710352	      1.45499532	      0.35111809	      0.92866679	     -0.01493504	      0.51056070	     -2.51418174	     -2.22458375	      0.52588439	      0.00917841	      2.61720696	     -8.24378004	     -7.49999987	      1.60250164	     -3.43936348	     -1.62136329	      1.79993435	      0.03141478	      0.25781506	     -7.72295993	     -7.49999987	      6.11045499	     -1.12577650	      7.17180202	    180.63538388	    -13.30968349	     84.56031148	     17.51479033	     60.59983876	    160.79932243	    -14.83342866	     66.72918833	     32.43585196	     69.21587128
      6.71666670	     -5.82378148	      0.35922415	      1.43145970	      0.35102765	      0.92811755	     -0.01462421	      0.55583300	     -2.57898889	     -2.23444696	      0.51911058	      0.00906019	      2.61858482	     -8.18577524	     -7.49999987	      1.62050994	     -3.38196012	     -1.77283081	      1.75739883	      0.03067240	      0.35409187	     -7.46296827	     -7.49999987	      6.32599227	     -1.15768206	      7.23535647	    180.45358251	    -13.61665121	     84.45569234	     18.11646972	     60.67256016	    160.49147640	    -14.98581167	     66.61833431	     33.15573363	     69.15211743
      6.73333330	     -5.81342084	      0.36274840	      1.44233423	      0.35101166	      0.92835970	     -0.01482352	      0.53202161	     -2.60147773	     -2.26434544	      0.51455512	      0.00898068	      2.63742017	     -8.11788392	     -7.49999987	      1.59335248	     -3.35091282	     -1.58119991	      1.74827115	      0.03051309	      0.23442573	     -7.83505538	     -7.49999987	      6.24536042	     -1.02081667	      7.03890358	    180.35810415	    -13.02546512	     84.22358509	     17.15751444	     61.32030033	    160.28967387	    -15.46685145	     65.32508342	     33.93791651	     70.23852336
      6.75000000	     -5.83066085	      0.34601223	      1.42261587	      0.34698918	      0.92791667	     -0.00994815	      0.62105056	     -2.52955089	     -2.24280801	      0.52687876	      0.00919577	      2.65739896	     -8.11072233	     -7.49999987	      1.64244696	     -3.40997742	     -1.57983375	      1.73005218	      0.03019511	      0.24308715	     -7.83372327	     -7.49999987	      6.12509057	     -1.12020900	      7.01702234	    180.33743872	    -12.99857839	     84.22630707	     17.16725799	     61.32291261	    160.24603921	    -15.48033539	     65.32282372	     33.94146057	     70.24429090
